<?xml version="1.0" encoding="UTF-8"?>
<svg version="1.1" xmlns="http://www.w3.org/2000/svg" width="512" height="512">
<path d="M0 0 C4.37541127 2.4850206 7.2967123 6.153691 9.75 10.5 C10.10639143 11.82735603 10.44316457 13.16032059 10.75 14.5 C11.80554415 14.50089563 11.80554415 14.50089563 12.88241243 14.50180936 C54.58510687 14.53769987 96.2877282 14.59433355 137.99035564 14.67792095 C142.99715086 14.68793846 148.00394641 14.69778258 153.01074219 14.70751953 C154.00750904 14.7094609 155.00427589 14.71140228 156.03124779 14.71340248 C172.1727565 14.74442728 188.31425099 14.76140448 204.4557839 14.77319422 C221.01732487 14.78560328 237.57879118 14.81309917 254.14028502 14.85461307 C264.36040266 14.87975545 274.5803965 14.89311674 284.80054551 14.89142957 C291.80798853 14.89139983 298.81530539 14.90601873 305.82269925 14.93216428 C309.86620125 14.94681832 313.90944455 14.95500631 317.9529686 14.94580269 C321.65689921 14.9375147 325.36031009 14.94767296 329.06416363 14.97233662 C331.03460724 14.98070619 333.00510423 14.96948287 334.97552919 14.95750165 C342.5660462 15.03117844 348.36246184 15.61031786 354.26262903 20.8409903 C358.0254136 24.9052093 359.58978456 29.14163795 359.8515625 34.62890625 C359.50247798 42.3490447 355.78012794 47.62476157 350.28042603 52.84333801 C349.34177704 53.67854477 348.40312805 54.51375153 347.43603516 55.37426758 C340.7484844 61.4069835 334.3987385 67.74948656 328.06022263 74.14517784 C326.03686867 76.18621645 324.00973904 78.22343867 321.9815979 80.25971985 C316.22603976 86.03950432 310.47649892 91.82524941 304.73095703 97.61499023 C301.19409835 101.1785378 297.65245737 104.73727314 294.10777664 108.29303932 C292.76221498 109.64481707 291.41855484 110.99849031 290.07682419 112.35407066 C288.21503621 114.23494944 286.34728462 116.10970291 284.47802734 117.9831543 C283.6474733 118.82685074 283.6474733 118.82685074 282.80014038 119.68759155 C278.97790154 123.5 278.97790154 123.5 276.75 123.5 C275.17726432 126.3424854 275.17726432 126.3424854 274.75 129.5 C276.79833107 131.73774458 278.87578194 133.88079154 281.03125 136.01171875 C281.67815796 136.65816849 282.32506592 137.30461823 282.99157715 137.97065735 C284.368002 139.34405357 285.74686382 140.71501103 287.12792969 142.08374023 C289.21856479 144.15633604 291.30130344 146.23660287 293.3828125 148.31835938 C294.72349156 149.65411449 296.06462396 150.98941478 297.40625 152.32421875 C298.0211731 152.93802902 298.63609619 153.55183929 299.26965332 154.18424988 C302.29060521 157.17308071 305.35676012 160.05735204 308.57885742 162.82885742 C313.55187292 167.13326903 318.18014836 171.767997 322.83203125 176.4140625 C323.77741136 177.35622027 324.72286256 178.29830671 325.66838074 179.24032593 C327.63411949 181.2001251 329.59783017 183.16193047 331.56030273 185.125 C334.06791476 187.63271425 336.58237635 190.13343927 339.0985918 192.63251686 C341.51424373 195.0343621 343.92268013 197.44339695 346.33203125 199.8515625 C347.23202347 200.7443692 348.13201569 201.6371759 349.0592804 202.55703735 C349.8941246 203.39495819 350.72896881 204.23287903 351.58911133 205.09619141 C352.32221024 205.8278653 353.05530914 206.55953918 353.81062317 207.31338501 C358.49097704 212.59040584 360.13269736 217.50066675 359.75 224.5 C358.73009344 228.00295009 357.36895587 231.23429502 355.75 234.5 C355.09 234.5 354.43 234.5 353.75 234.5 C353.75 235.16 353.75 235.82 353.75 236.5 C347.63515879 240.21686426 343.20914848 241.62578855 335.96541119 241.62304783 C334.80245201 241.62503888 333.63949283 241.62702993 332.44129246 241.62908131 C330.53128295 241.62471205 330.53128295 241.62471205 328.58268738 241.62025452 C327.21306298 241.62069064 325.84343866 241.62156632 324.47381479 241.62284368 C320.71117993 241.62508049 316.94857352 241.62107846 313.18594229 241.61606562 C309.12805089 241.61174965 305.07016111 241.61320836 301.01226807 241.6139679 C293.98200793 241.6144924 286.95175706 241.61135324 279.92149925 241.60573006 C269.75690996 241.59760515 259.59232517 241.59499882 249.42773298 241.59374207 C232.93660135 241.59155311 216.44547465 241.58489724 199.9543457 241.57543945 C183.93416366 241.56626131 167.91398297 241.55918244 151.89379883 241.55493164 C150.41272595 241.55453756 150.41272595 241.55453756 148.90173241 241.55413551 C143.948358 241.55283048 138.99498359 241.55156677 134.04160917 241.55032361 C92.94440267 241.53995585 51.84720162 241.52234177 10.75 241.5 C10.75276538 242.60159989 10.75553076 243.70319979 10.75837994 244.8381815 C10.82496554 271.63706011 10.87427109 298.43592801 10.90543652 325.23487186 C10.92090829 338.1946157 10.94200384 351.1543049 10.97631836 364.11401367 C11.00621109 375.40910788 11.02557274 386.70416251 11.03226548 397.99929518 C11.03617793 403.980502 11.04537937 409.96159563 11.06719017 415.94276619 C11.08755321 421.57253159 11.09383411 427.20213716 11.08932304 432.83193588 C11.09014832 434.89791546 11.09611497 436.96390038 11.10761642 439.0298481 C11.12255751 441.85209042 11.11894757 444.67373048 11.11076355 447.49598694 C11.11950207 448.31215093 11.1282406 449.12831493 11.13724393 449.96921116 C11.07416176 458.02582569 8.47522179 463.64163351 2.75 469.5 C-2.51219269 473.25870906 -8.02007108 473.16117332 -14.25 472.5 C-19.62227172 470.7768185 -23.2280777 467.18762043 -26.25 462.5 C-28.09731563 457.90480975 -28.53562203 453.77700842 -28.50447559 448.88118172 C-28.50768207 448.13039425 -28.51088855 447.37960679 -28.51419219 446.60606819 C-28.52249938 444.08805984 -28.51656541 441.5702889 -28.51069641 439.05227661 C-28.51371677 437.22963647 -28.51760566 435.40699759 -28.52228898 433.58436096 C-28.53259267 428.57384455 -28.53038112 423.56339951 -28.52610838 418.55287719 C-28.52364546 413.14990827 -28.53264993 407.74695673 -28.54014587 402.34399414 C-28.552907 391.75821035 -28.5546848 381.1724519 -28.55234561 370.58666171 C-28.55056386 361.98370416 -28.55230901 353.38075432 -28.55657005 344.7777977 C-28.55716524 343.55421075 -28.55776043 342.33062381 -28.55837366 341.06995847 C-28.55958539 338.58437952 -28.56079952 336.09880058 -28.56201603 333.61322163 C-28.57289703 310.29383406 -28.57072644 286.97446094 -28.56463119 263.65507255 C-28.55946158 242.31483387 -28.57071765 220.97464957 -28.58972941 199.63441898 C-28.60909439 177.7300257 -28.61736616 155.82565403 -28.61360615 133.92125213 C-28.61169207 121.62050174 -28.61420185 109.3197902 -28.62832069 97.01904678 C-28.6402184 86.54730525 -28.64165748 76.07562648 -28.62953053 65.60388412 C-28.62363052 60.26015739 -28.62257339 54.91654555 -28.63453293 49.57282639 C-28.64535332 44.68128882 -28.64233423 39.78996262 -28.62827124 34.8984351 C-28.6256137 33.12863198 -28.62802389 31.3588125 -28.63600711 29.58902539 C-28.64610887 27.18259556 -28.63769522 24.77690104 -28.62473011 22.37050056 C-28.63203946 21.68411107 -28.6393488 20.99772158 -28.64687964 20.29053241 C-28.58043176 14.33658754 -27.23157805 8.82915324 -23.3125 4.22265625 C-22.2915625 3.40087891 -22.2915625 3.40087891 -21.25 2.5625 C-20.569375 1.99660156 -19.88875 1.43070313 -19.1875 0.84765625 C-13.73662106 -2.94378172 -5.92208065 -2.59019712 0 0 Z M10.75 53.5 C10.75 103 10.75 152.5 10.75 203.5 C103.81 203.5 196.87 203.5 292.75 203.5 C288.91399215 199.0246575 285.15572791 194.76998417 280.97583008 190.65991211 C280.43357285 190.12232773 279.89131561 189.58474335 279.33262634 189.03086853 C278.16827508 187.87692854 277.00281861 186.7241028 275.83634377 185.57230949 C273.98780233 183.74599636 272.14342961 181.91556755 270.30021667 180.08387756 C265.06386031 174.88093162 259.82328828 169.68229015 254.57250977 164.49389648 C251.34960244 161.30869704 248.13410438 158.116176 244.92319298 154.91888618 C243.70317954 153.70690338 242.48039955 152.49769863 241.25477028 151.29139519 C239.54151668 149.60471031 237.83785231 147.90885703 236.13598633 146.21069336 C235.63255707 145.71962097 235.12912781 145.22854858 234.61044312 144.72259521 C230.73180756 140.8216939 228.08421273 137.0164253 227.3515625 131.5 C227.35929688 130.51 227.36703125 129.52 227.375 128.5 C227.36726562 127.51 227.35953125 126.52 227.3515625 125.5 C228.11022484 119.78771884 231.00265873 115.85689072 234.8125 111.6875 C235.50472656 110.91792969 236.19695312 110.14835937 236.91015625 109.35546875 C239.24836705 106.91928264 241.75110533 104.70014513 244.27856445 102.4621582 C249.73974923 97.56147148 254.95118381 92.44342766 260.1328125 87.25 C261.08244551 86.30104279 262.03222673 85.35223388 262.98214722 84.40356445 C264.94838015 82.43878905 266.91283487 80.47225847 268.87597656 78.50439453 C271.39671764 75.97788588 273.92201892 73.4559898 276.44861031 70.93533325 C278.86659846 68.52180526 281.28079468 66.10449982 283.6953125 63.6875 C285.05911545 62.3267334 285.05911545 62.3267334 286.45046997 60.93847656 C287.6933931 59.6908252 287.6933931 59.6908252 288.96142578 58.41796875 C289.69515411 57.68344482 290.42888245 56.9489209 291.18484497 56.19213867 C292.86317081 54.76181479 292.86317081 54.76181479 292.75 53.5 C199.69 53.5 106.63 53.5 10.75 53.5 Z " fill="#000000" transform="translate(90.25,20.5)"/>
</svg>
