<?xml version="1.0" encoding="UTF-8"?>
<svg version="1.1" xmlns="http://www.w3.org/2000/svg" width="512" height="512">
<path d="M0 0 C1.24425993 -0.00453111 2.48851985 -0.00906223 3.77048463 -0.01373065 C7.21710226 -0.02419336 10.66351106 -0.02570179 14.11012971 -0.02334189 C17.83008272 -0.02293339 21.55000472 -0.03397607 25.26994324 -0.04345703 C32.5553556 -0.0600606 39.8407356 -0.06556628 47.12616531 -0.06668179 C53.04890968 -0.06763255 58.97164339 -0.07174427 64.89438438 -0.07808304 C81.6912961 -0.09569359 98.48818228 -0.10492218 115.2851033 -0.10342209 C116.19038002 -0.10334218 117.09565674 -0.10326227 118.02836609 -0.10317993 C119.38794164 -0.10305729 119.38794164 -0.10305729 120.77498337 -0.10293217 C135.46374727 -0.10211929 150.15240863 -0.1212579 164.84114287 -0.14945666 C179.92817915 -0.17819123 195.01516543 -0.19199665 210.10222977 -0.19026911 C218.57057062 -0.18960542 227.03880395 -0.19508882 235.50712013 -0.21662521 C242.71726403 -0.23484454 249.92725169 -0.2391782 257.13740865 -0.22560637 C260.81453357 -0.21908049 264.49135879 -0.2189454 268.16845512 -0.23631287 C272.15891644 -0.25496619 276.14868519 -0.24247933 280.13916016 -0.22705078 C281.2955911 -0.23733791 282.45202203 -0.24762503 283.64349633 -0.25822389 C291.16398379 -0.19397826 297.87214093 0.71110359 303.60919267 5.95885336 C310.62546694 13.41292226 311.19889016 20.74763586 311.1477356 30.58966064 C311.1558139 32.45120684 311.1558139 32.45120684 311.16405541 34.35036004 C311.17586694 37.78341624 311.17427305 41.21598563 311.16688859 44.64902234 C311.16215321 48.35601369 311.17467008 52.06295328 311.18490601 55.76992798 C311.20209242 63.02781649 311.20293431 70.28561841 311.1976931 77.54352199 C311.19364967 83.44384012 311.19509702 89.3441327 311.20044136 95.24444962 C311.20118978 96.0846125 311.2019382 96.92477538 311.20270931 97.79039774 C311.2042408 99.49726343 311.20577915 101.20412911 311.20732427 102.91099478 C311.22104889 118.91393673 311.21561203 134.91682978 311.20413906 150.91977061 C311.19420795 165.55351005 311.20714529 180.18712303 311.23107325 194.82084297 C311.25546824 209.85367616 311.26507106 224.88645047 311.25842053 239.91930306 C311.25492904 248.35632322 311.25715567 256.79324614 311.27467155 265.23025131 C311.28939859 272.41293121 311.29002253 279.59544539 311.27260064 286.77812205 C311.26409209 290.44107144 311.2619372 294.10372488 311.2772522 297.76665878 C311.29366588 301.74166481 311.27894315 305.71621492 311.26126099 309.69122314 C311.27086599 310.84308102 311.280471 311.99493889 311.29036707 313.18170154 C311.21847038 321.03893138 309.9433864 327.39491996 304.86552429 333.57211304 C304.2325946 334.09031616 303.59966492 334.60851929 302.94755554 335.14242554 C302.32236023 335.67609741 301.69716492 336.20976929 301.05302429 336.75961304 C293.87679227 341.47856629 287.90057844 341.69730946 279.46905518 341.64837646 C278.23140236 341.65305644 276.99374955 341.65773641 275.71859211 341.6625582 C272.29500036 341.67243643 268.87190407 341.668905 265.44834268 341.65959954 C261.75160118 341.65280306 258.05490251 341.66329329 254.35816956 341.67153931 C247.12066344 341.68487285 239.8832507 341.68200048 232.64574093 341.67330138 C226.76257782 341.66652323 220.87944085 341.66560869 214.99627495 341.66887283 C214.15859871 341.66933253 213.32092246 341.66979223 212.45786209 341.67026586 C210.75606767 341.67122505 209.05427326 341.67219769 207.35247885 341.67318363 C191.39773 341.68173656 175.44303288 341.67190521 159.48829251 341.65578254 C145.80370779 341.64238189 132.11919943 341.64470554 118.43461609 341.65853882 C102.53808346 341.67460059 86.64159618 341.68091001 70.74505657 341.67170203 C69.04925502 341.6707464 67.35345346 341.66980328 65.6576519 341.66887283 C64.8233171 341.66841001 63.9889823 341.66794718 63.12936463 341.66747033 C57.25499993 341.66488205 51.38066403 341.669248 45.50630379 341.67631149 C38.34484171 341.68473343 31.18347825 341.68243188 24.02202744 341.66646926 C20.3693769 341.65859548 16.71689067 341.65547958 13.06424141 341.66541672 C9.1020816 341.67603268 5.1401897 341.6633398 1.17803955 341.64837646 C-0.5482801 341.65841471 -0.5482801 341.65841471 -2.30947489 341.66865575 C-10.44157077 341.60903573 -17.59129375 340.64786025 -23.86813074 334.88137805 C-30.11080351 327.53681128 -30.96340128 319.80696616 -30.86813354 310.50177002 C-30.87522793 309.24930328 -30.88232232 307.99683653 -30.88963169 306.70641625 C-30.90845046 303.25532861 -30.89638011 299.80495569 -30.87890875 296.35388684 C-30.86548194 292.62241311 -30.88099065 288.89104033 -30.89273071 285.15957642 C-30.91107117 277.86025517 -30.90261963 270.56120233 -30.88464249 263.26188956 C-30.87059605 257.32872956 -30.86672807 251.39564223 -30.87008476 245.46246719 C-30.8705622 244.61687134 -30.87103965 243.77127548 -30.87153156 242.90005551 C-30.87255792 241.18207468 -30.87361328 239.46409387 -30.87469732 237.74611308 C-30.88325684 222.5690816 -30.86661257 207.39217945 -30.83686829 192.21517944 C-30.80802248 177.49637422 -30.80095314 162.77775519 -30.81636047 148.05892944 C-30.83312838 132.0184291 -30.83715162 115.97801708 -30.81965011 99.93751442 C-30.81780578 98.22659374 -30.81597105 96.51567305 -30.81414604 94.80475235 C-30.81323395 93.96301018 -30.81232186 93.12126801 -30.81138213 92.25401851 C-30.80578119 86.32851908 -30.80907969 80.40306285 -30.81569099 74.47756577 C-30.82342903 67.25575333 -30.8166544 60.03412404 -30.79151595 52.81234847 C-30.77903292 49.12926185 -30.77285974 45.44646022 -30.78405762 41.76336288 C-30.79597438 37.76834953 -30.7768175 33.77408306 -30.75460815 29.77911377 C-30.76284892 28.61860752 -30.77108969 27.45810127 -30.77958018 26.26242816 C-30.69939811 18.45533971 -29.53638874 13.09770695 -24.31025696 7.02523804 C-23.66830383 6.48640991 -23.02635071 5.94758179 -22.36494446 5.39242554 C-21.72814758 4.83812866 -21.09135071 4.28383179 -20.43525696 3.71273804 C-14.06634161 -0.48032011 -7.34536089 -0.01955948 0 0 Z M17.76005554 48.26742554 C17.76005554 128.78742554 17.76005554 209.30742554 17.76005554 292.26742554 C98.28005554 292.26742554 178.80005554 292.26742554 261.76005554 292.26742554 C261.76005554 211.74742554 261.76005554 131.22742554 261.76005554 48.26742554 C181.24005554 48.26742554 100.72005554 48.26742554 17.76005554 48.26742554 Z " fill="#000000" transform="translate(70.23994445800781,39.732574462890625)"/>
<path d="M0 0 C5.33510719 5.0200418 9.0189858 9.70733892 9.25726891 17.23174 C9.27085427 18.95211657 9.27343577 20.67260092 9.26742554 22.39302063 C9.27195665 23.34311593 9.27648776 24.29321123 9.28115618 25.27209729 C9.29382334 28.45789611 9.2921783 31.64352448 9.29052734 34.8293457 C9.29651115 37.11264262 9.30331635 39.39593751 9.31088257 41.67922974 C9.32856499 47.88382918 9.3332389 54.08837348 9.33451414 60.29299569 C9.33641264 65.47192251 9.34376964 70.65083647 9.35085833 75.82975835 C9.36621788 87.35051975 9.37219549 98.87124968 9.37084763 110.39201985 C9.37076772 111.08306101 9.3706878 111.77410218 9.37060547 112.48608398 C9.37052371 113.17797124 9.37044195 113.86985849 9.37035771 114.58271202 C9.36954498 125.79323752 9.38868002 137.00362861 9.4168822 148.21411524 C9.44562705 159.73141335 9.45905554 171.24862857 9.45769465 182.76596516 C9.45718463 189.22948324 9.46289029 195.69284922 9.48405075 202.15633583 C9.5034109 208.23600928 9.50357254 214.3153852 9.48901749 220.39506912 C9.48692554 222.62510932 9.49165318 224.85516803 9.5037384 227.08517647 C9.51918177 230.13247682 9.5098881 233.1787501 9.49447632 236.22602844 C9.50476344 237.10590607 9.51505057 237.98578369 9.52564943 238.89232427 C9.44870367 245.78977542 7.59294297 250.98714724 3.0703125 256.2421875 C2.42835938 256.78101563 1.78640625 257.31984375 1.125 257.875 C0.48820312 258.42929687 -0.14859375 258.98359375 -0.8046875 259.5546875 C-6.41088481 263.24560032 -12.00421892 263.29020693 -18.47531128 263.26742554 C-19.42217745 263.27195665 -20.36904362 263.27648776 -21.3446027 263.28115618 C-24.51347633 263.29380396 -27.68217817 263.29217956 -30.85107422 263.29052734 C-33.12466655 263.29651231 -35.39825686 263.30331778 -37.67184448 263.31088257 C-43.84539403 263.32855192 -50.01888814 263.33323832 -56.19246054 263.33451414 C-61.34658428 263.33641361 -66.50069511 263.3437716 -71.65481389 263.35085833 C-83.12021143 263.36621306 -94.58557288 263.37219593 -106.05097805 263.37084763 C-106.73846682 263.37076772 -107.42595558 263.3706878 -108.13427734 263.37060547 C-108.82260848 263.37052371 -109.51093961 263.37044195 -110.22012927 263.37035771 C-121.37562598 263.36954479 -132.53098768 263.38868568 -143.68644534 263.4168822 C-155.14953677 263.44562699 -166.61253502 263.45905557 -178.07566845 263.45769465 C-184.5078728 263.45718467 -190.93992429 263.46288788 -197.37209702 263.48405075 C-203.42141549 263.50341075 -209.47043494 263.50357265 -215.51976395 263.48901749 C-217.73851711 263.48692561 -219.95728889 263.49165275 -222.17601013 263.5037384 C-225.20793199 263.51918261 -228.23882168 263.50988763 -231.27072144 263.49447632 C-232.14602599 263.50476344 -233.02133054 263.51505057 -233.92315948 263.52564943 C-241.14822424 263.44464609 -246.23100234 261.32847531 -251.75 256.6875 C-256.79434367 250.66231173 -259.34783616 245.15005781 -259.21484375 237.21484375 C-258.57479422 230.61651495 -256.15293154 224.34018972 -251 220 C-242.09800237 213.29636203 -231.89024899 214.32729116 -221.32177734 214.43237305 C-219.33018021 214.433785 -217.33858049 214.43298866 -215.34698486 214.43016052 C-209.9632208 214.42873073 -204.58001802 214.45804994 -199.19638395 214.49303031 C-193.5616668 214.52436664 -187.92693562 214.52723029 -182.29214478 214.53315735 C-171.63214806 214.54867439 -160.97240889 214.58967403 -150.31252539 214.6399048 C-138.17229487 214.69586477 -126.03205181 214.72330152 -113.89172435 214.74838197 C-88.92767366 214.80059167 -63.96385129 214.88849244 -39 215 C-39.00368717 213.96632042 -39.00737434 212.93264084 -39.01117325 211.86763763 C-39.09998341 186.71242916 -39.1657087 161.55724103 -39.20724869 136.40190887 C-39.22787121 124.23695808 -39.25598606 112.07211087 -39.30175781 99.90722656 C-39.34163485 89.30393864 -39.36743506 78.70072573 -39.37635398 68.0973649 C-39.38156721 62.48328775 -39.39381408 56.86942522 -39.42292023 51.25541687 C-39.45010283 45.96951577 -39.45843915 40.68391739 -39.45243073 35.39795303 C-39.45352968 33.45977762 -39.46146649 31.52159192 -39.4768219 29.58347702 C-39.49679439 26.93219459 -39.49191291 24.28204732 -39.48101807 21.6307373 C-39.49266943 20.86806848 -39.5043208 20.10539966 -39.51632524 19.31961966 C-39.4445305 12.83288117 -37.28747391 7.82188375 -33.2109375 2.79296875 C-23.43020248 -5.75997187 -10.96023362 -7.79691416 0 0 Z " fill="#000000" transform="translate(463,209)"/>
<path d="M0 0 C5.87557057 3.79824579 10.3661352 9.17621234 12.69799805 15.80761719 C14.00890859 22.05531204 13.55228433 28.6028106 13.44140625 34.95703125 C13.42633485 36.46222622 13.41265078 37.96743576 13.40039062 39.47265625 C13.36757312 43.13442066 13.31592614 46.79563146 13.25390625 50.45703125 C14.14585693 50.41626465 15.03780762 50.37549805 15.95678711 50.33349609 C19.30563729 50.18614582 22.65458489 50.04954844 26.00415039 49.91992188 C27.44638349 49.86196854 28.88845748 49.79988781 30.33032227 49.73339844 C41.75972554 49.21045867 51.83926318 49.0244183 61.25390625 56.45703125 C67.44411694 62.64724194 70.44715954 69.17620604 70.81640625 77.89453125 C70.55448916 86.18857256 67.14206841 93.56886909 61.25390625 99.45703125 C54.5978262 104.00615071 48.89558287 105.76083424 40.890625 105.65234375 C40.09864212 105.64951385 39.30665924 105.64668396 38.49067688 105.64376831 C35.97409626 105.63261988 33.45787836 105.60752547 30.94140625 105.58203125 C29.22982287 105.57199454 27.51823388 105.56286989 25.80664062 105.5546875 C21.62225719 105.53269806 17.43814311 105.49820533 13.25390625 105.45703125 C13.28532715 106.48473633 13.31674805 107.51244141 13.34912109 108.57128906 C13.45897796 112.44010173 13.52705021 116.30878146 13.58349609 120.17871094 C13.61338792 121.84301042 13.65411828 123.50715629 13.70654297 125.17089844 C14.03252685 135.79413775 13.7876957 144.47911004 7.25390625 153.45703125 C4.75919708 155.91979907 2.30677843 157.74429784 -0.74609375 159.45703125 C-1.79796875 160.07578125 -2.84984375 160.69453125 -3.93359375 161.33203125 C-12.08690421 163.73792614 -20.68307378 163.48841827 -28.45703125 159.91796875 C-35.69431834 155.29894935 -40.2436778 148.45032888 -42.30639648 140.22192383 C-42.85511853 136.77146452 -42.85767071 133.46284904 -42.84375 129.96875 C-42.84233505 129.2655513 -42.8409201 128.5623526 -42.83946228 127.83784485 C-42.83389484 125.60669581 -42.8213485 123.37564961 -42.80859375 121.14453125 C-42.80357454 119.6256525 -42.79901237 118.10677216 -42.79492188 116.58789062 C-42.78393611 112.87757113 -42.76669409 109.16731124 -42.74609375 105.45703125 C-44.03858032 105.48059692 -44.03858032 105.48059692 -45.35717773 105.50463867 C-48.59445927 105.55616904 -51.83152976 105.59357519 -55.0690918 105.62182617 C-56.46271703 105.63679063 -57.85629619 105.65716976 -59.24975586 105.68334961 C-70.41638969 105.88769059 -79.53795999 105.51751236 -87.953125 97.5390625 C-93.06619252 91.60166601 -96.17877328 84.34706982 -95.74609375 76.45703125 C-94.37556903 67.27211117 -91.77028256 60.3437461 -84.30859375 54.64453125 C-78.97368454 50.8779568 -73.57545226 50.21039638 -67.16015625 50.26171875 C-66.4583725 50.26454865 -65.75658875 50.26737854 -65.03353882 50.27029419 C-62.81254347 50.28140613 -60.5919653 50.30649291 -58.37109375 50.33203125 C-56.8567767 50.34207271 -55.34245326 50.35119652 -53.828125 50.359375 C-50.13398117 50.38131571 -46.44007824 50.4157825 -42.74609375 50.45703125 C-42.7618042 49.63090332 -42.77751465 48.80477539 -42.79370117 47.95361328 C-42.84532112 44.84117013 -42.88267997 41.72894767 -42.91088867 38.61621094 C-42.93310854 36.6255022 -42.9712597 34.63499157 -43.00976562 32.64453125 C-43.10114451 20.58251801 -41.79528923 12.38506227 -33.1875 3.59765625 C-24.07552771 -4.39172105 -10.90590473 -5.08463103 0 0 Z " fill="#000000" transform="translate(224.74609375,132.54296875)"/>
</svg>
