<?xml version="1.0" encoding="UTF-8"?>
<svg version="1.1" xmlns="http://www.w3.org/2000/svg" width="225" height="225">
<path d="M0 0 C74.25 0 148.5 0 225 0 C225 74.25 225 148.5 225 225 C150.75 225 76.5 225 0 225 C0 150.75 0 76.5 0 0 Z " fill="#010101" transform="translate(0,0)"/>
<path d="M0 0 C74.25 0 148.5 0 225 0 C225 74.25 225 148.5 225 225 C150.75 225 76.5 225 0 225 C0 150.75 0 76.5 0 0 Z M89.125 10.75 C87.94200317 10.98529419 87.94200317 10.98529419 86.73510742 11.2253418 C81.13671361 12.46989357 76.16305266 14.53535262 71 17 C69.85015625 17.51820312 68.7003125 18.03640625 67.515625 18.5703125 C43.55925843 29.97537697 24.47412031 50.13192758 15 75 C6.29320692 99.9058648 5.40809753 128.56246427 16.46484375 152.94140625 C21.95421092 163.87823702 27.69686711 173.89848895 36 183 C36.69609375 183.77730469 37.3921875 184.55460938 38.109375 185.35546875 C55.66761338 203.9710463 81.246709 215.35805396 106.72265625 216.2109375 C110.50112655 216.27406324 114.26687083 216.2091275 118.04296875 216.06933594 C119.72579066 216.009715 121.40992058 215.98931878 123.09375 215.9765625 C143.3728361 215.23603408 164.06341144 205.36295834 179 192 C180.25876953 190.93652344 180.25876953 190.93652344 181.54296875 189.8515625 C200.71320136 173.32049958 213.943847 148.92876586 215.83203125 123.52734375 C216.53332802 108.80011148 216.57735574 95.134705 212 81 C211.79632813 80.36545898 211.59265625 79.73091797 211.3828125 79.07714844 C205.90096125 62.64005433 196.27207468 49.06018897 184 37 C183.23945313 36.24074219 182.47890625 35.48148438 181.6953125 34.69921875 C175.77949139 29.11927759 169.02790973 25.03782429 162 21 C161.32646484 20.59217285 160.65292969 20.1843457 159.95898438 19.76416016 C154.33331766 16.45516389 148.78477882 14.45155584 142.5 12.75 C141.17162109 12.36714844 141.17162109 12.36714844 139.81640625 11.9765625 C123.59448162 7.45062171 105.57928118 7.46102407 89.125 10.75 Z " fill="#010101" transform="translate(0,0)"/>
<path d="M0 0 C7.17745539 6.13997826 13.71734658 12.6737616 18.97265625 20.54296875 C19.60945312 21.4865625 20.24625 22.43015625 20.90234375 23.40234375 C37.12309235 48.49859631 40.52159082 76.46297629 34.34765625 105.48046875 C27.62215737 132.38246427 9.66574878 155.70969517 -13.9453125 169.97265625 C-27.61750845 177.81749253 -43.14277787 183.42263113 -59.02734375 183.54296875 C-60.39196765 183.5913162 -61.75654839 183.64089063 -63.12109375 183.69140625 C-93.01843487 184.53261675 -117.11959485 174.25003112 -139.32421875 154.5 C-156.15244916 138.57120949 -168.99222979 114.04692369 -170.17260742 90.66552734 C-170.19741319 87.41623797 -170.2129996 84.16735968 -170.21484375 80.91796875 C-170.22708984 79.80550781 -170.23933594 78.69304687 -170.25195312 77.546875 C-170.30047744 49.75861758 -159.11727008 25.63031087 -139.83984375 5.91796875 C-126.00454284 -7.75322916 -109.92345718 -16.6789797 -91.02734375 -21.45703125 C-90.14691406 -21.68261719 -89.26648438 -21.90820312 -88.359375 -22.140625 C-56.73395889 -28.75777556 -24.73816661 -20.11628099 0 0 Z M-139.65234375 14.23046875 C-155.96108483 33.07742177 -164.47174963 56.02599118 -164.33984375 80.91796875 C-164.3349292 82.01923096 -164.33001465 83.12049316 -164.32495117 84.25512695 C-164.21133904 92.12932151 -163.54190385 99.03984586 -161.02734375 106.54296875 C-160.68703125 107.661875 -160.34671875 108.78078125 -159.99609375 109.93359375 C-151.73178027 135.28493375 -133.41188314 155.65516359 -110.05078125 168.1328125 C-107.40774415 169.38577965 -104.75765301 170.49501181 -102.02734375 171.54296875 C-101.10953125 171.91035156 -100.19171875 172.27773437 -99.24609375 172.65625 C-74.73701964 181.71538357 -48.54563853 178.45696639 -25.02734375 168.54296875 C-2.79714021 158.28898929 15.5110798 139.73842684 24.12963867 116.7487793 C24.75407854 115.01711821 25.36391389 113.28021024 25.97265625 111.54296875 C26.28847656 110.73472656 26.60429687 109.92648438 26.9296875 109.09375 C35.16262278 87.15277471 31.89434405 60.61441943 22.97265625 39.54296875 C19.0579063 31.08573926 13.7631335 23.81164882 7.97265625 16.54296875 C7.38484375 15.79917969 6.79703125 15.05539063 6.19140625 14.2890625 C-8.07945316 -2.9100157 -28.58178057 -12.2114629 -50.02734375 -16.45703125 C-50.94644531 -16.65167969 -51.86554688 -16.84632812 -52.8125 -17.046875 C-85.78059681 -21.25301129 -116.78651716 -9.94084621 -139.65234375 14.23046875 Z " fill="#EFEFEF" transform="translate(179.02734375,32.45703125)"/>
<path d="M0 0 C5.2354914 2.47495957 9.39229231 6.78458462 12 12 C12.09765263 13.7060489 12.12975999 15.41616524 12.125 17.125 C12.12628906 18.11113281 12.12757813 19.09726563 12.12890625 20.11328125 C12.01518858 22.65986779 11.63116223 24.84192544 11.0625 27.3125 C10.59103043 30.86155856 10.59103043 30.86155856 12.28125 32.47265625 C13.50936891 33.43953057 14.75557523 34.38371722 16.015625 35.30859375 C21.35788967 39.86213824 24.76328419 47.19806305 26 54 C26.13546417 57.00923975 26.12282616 59.99075908 26 63 C24.68 63 23.36 63 22 63 C21.84144531 62.0821875 21.68289062 61.164375 21.51953125 60.21875 C19.59172193 50.07911201 17.02996158 42.79458287 9 36 C7.0745356 34.8509288 7.0745356 34.8509288 5 35 C4.2575 35.48726562 3.515 35.97453125 2.75 36.4765625 C-0.43263449 38.23966968 -2.3878716 38.40264384 -6 38.375 C-7.010625 38.38273437 -8.02125 38.39046875 -9.0625 38.3984375 C-12.37174279 37.94957744 -14.23073738 36.80458015 -17 35 C-20.38723157 35.20528676 -22.42719381 36.88662349 -25 39 C-24.47976853 42.22543513 -23.59375327 45.08710815 -22.4375 48.125 C-20.20951039 54.71019096 -19.74611683 61.69620396 -22.5 68.1875 C-23.2425 69.5796875 -23.2425 69.5796875 -24 71 C-23.41992188 71.26039062 -22.83984375 71.52078125 -22.2421875 71.7890625 C-13.21664958 76.66348193 -8.52536922 85.95810507 -5.1875 95.265625 C-3.8754461 99.89425959 -3.83007147 104.24200104 -4 109 C-5.65 109 -7.3 109 -9 109 C-9.08636719 108.10539062 -9.17273438 107.21078125 -9.26171875 106.2890625 C-10.6673108 94.19323369 -14.17477365 85.53244633 -23 77 C-25.65495448 74.7697054 -25.65495448 74.7697054 -27.8125 75.1875 C-30.14555399 75.98870411 -30.14555399 75.98870411 -32.69921875 77.5234375 C-38.28388084 80.02166504 -43.99619131 79.68451976 -50 79 C-52.41683608 77.92185751 -53.92989204 76.68877228 -56 75 C-60.76030694 75.59384111 -63.96915903 78.47664738 -67 82 C-72.49977446 90.67101538 -75.16346592 98.72258126 -76 109 C-77.32 109 -78.64 109 -80 109 C-80.97989547 96.71864346 -77.6459881 87.36799881 -69.7734375 77.9140625 C-67.33678573 75.28419606 -64.91121312 73.09878155 -62 71 C-61.34 71 -60.68 71 -60 71 C-60.66 69.9275 -61.32 68.855 -62 67.75 C-65.10608166 61.4487734 -65.18881901 54.90064119 -63.15234375 48.21875 C-60.47911212 42.20171338 -56.81511643 38.13299513 -51 35 C-45.14286875 33.14203187 -39.68845776 33.77158349 -33.875 35.3125 C-31.15151783 35.90602548 -29.61226224 36.23511825 -26.99609375 35.23046875 C-25.01499521 33.90275513 -25.01499521 33.90275513 -23 31 C-23.04832621 28.26139352 -23.04832621 28.26139352 -24 25 C-24.87673012 12.25234404 -24.87673012 12.25234404 -21 7 C-14.23697455 0.37787091 -9.53801619 -0.88754803 0 0 Z " fill="#ECECEC" transform="translate(134,50)"/>
<path d="M0 0 C4.48737023 1.69246836 7.04115142 4.61370741 9.4375 8.6875 C11.48603008 13.41693249 11.93285385 17.93363856 11 23 C8.85895743 28.10691303 5.68322145 31.99793497 1 35 C-3.82084341 36.92833736 -8.85016416 36.37028612 -13.6875 34.8125 C-18.35354877 32.25937897 -20.99908496 28.87882687 -23 24 C-23.64317467 18.21142801 -23.85005993 12.83089832 -21.375 7.5 C-20.199375 6.2625 -20.199375 6.2625 -19 5 C-18.195625 4.05125 -17.39125 3.1025 -16.5625 2.125 C-11.86052536 -1.56940865 -5.60087211 -0.85200299 0 0 Z " fill="#030303" transform="translate(98,89)"/>
<path d="M0 0 C4.79876079 2.3993804 7.6704397 5.16168244 10 10 C10.7971639 14.99447589 10.57907893 18.79729761 8.375 23.375 C5.33718275 26.73258748 2.63310454 29.53959469 -1.98828125 30.34765625 C-7.51698299 30.58712921 -10.54970717 28.99653489 -14.6875 25.625 C-17.98094337 21.54740345 -18.4478231 17.30246923 -18.3125 12.2109375 C-17.62683174 7.35983455 -14.81888212 4.70721638 -11.25 1.625 C-7.26245631 -0.36877185 -4.37028828 -0.8565765 0 0 Z " fill="#040404" transform="translate(132,54)"/>
</svg>
